<svg width="20" height="20" viewBox="0 0 20 20" fill="none" xmlns="http://www.w3.org/2000/svg">
<path d="M18.1429 11.3571H11.3571V18.1429C11.3571 18.8893 10.7464 19.5 10 19.5C9.25357 19.5 8.64286 18.8893 8.64286 18.1429V11.3571H1.85714C1.11071 11.3571 0.5 10.7464 0.5 10C0.5 9.25357 1.11071 8.64286 1.85714 8.64286H8.64286V1.85714C8.64286 1.11071 9.25357 0.5 10 0.5C10.7464 0.5 11.3571 1.11071 11.3571 1.85714V8.64286H18.1429C18.8893 8.64286 19.5 9.25357 19.5 10C19.5 10.7464 18.8893 11.3571 18.1429 11.3571Z" fill="white"/>
</svg>
