<svg width="20" height="19" viewBox="0 0 20 19" fill="none" xmlns="http://www.w3.org/2000/svg">
<path d="M18.1429 10.8571H11.3571V17.6429C11.3571 18.3893 10.7464 19 10 19C9.25357 19 8.64286 18.3893 8.64286 17.6429V10.8571H1.85714C1.11071 10.8571 0.5 10.2464 0.5 9.5C0.5 8.75357 1.11071 8.14286 1.85714 8.14286H8.64286V1.35714C8.64286 0.610714 9.25357 0 10 0C10.7464 0 11.3571 0.610714 11.3571 1.35714V8.14286H18.1429C18.8893 8.14286 19.5 8.75357 19.5 9.5C19.5 10.2464 18.8893 10.8571 18.1429 10.8571Z" fill="#6C27CD"/>
</svg>
