<svg width="25" height="25" viewBox="0 0 25 25" fill="none" xmlns="http://www.w3.org/2000/svg">
<path d="M13.9163 0.666181C14.2512 0.239625 14.7053 0 15.1788 0C15.6523 0 16.1064 0.239625 16.4413 0.666181L24.4772 10.9051C24.8119 11.3318 25 11.9104 25 12.5137C25 13.1171 24.8119 13.6957 24.4772 14.1224L16.4413 24.3613C16.1045 24.7758 15.6534 25.0051 15.1852 24.9999C14.717 24.9947 14.2691 24.7554 13.938 24.3336C13.6069 23.9117 13.4191 23.341 13.4151 22.7445C13.411 22.1479 13.591 21.5731 13.9163 21.144L18.7503 14.789H1.78574C1.31213 14.789 0.857923 14.5493 0.523032 14.1226C0.18814 13.6959 0 13.1172 0 12.5137C0 11.9103 0.18814 11.3316 0.523032 10.9048C0.857923 10.4781 1.31213 10.2384 1.78574 10.2384H18.7503L13.9163 3.88347C13.5815 3.45679 13.3934 2.87816 13.3934 2.27483C13.3934 1.6715 13.5815 1.09286 13.9163 0.666181Z" fill="#7D38DD"/>
</svg>
