<svg width="12" height="24" viewBox="0 0 12 24" fill="none" xmlns="http://www.w3.org/2000/svg">
<path d="M0.696355 2.52196L9.38515 11.2636C9.57571 11.4544 9.68333 11.7126 9.68466 11.9822C9.68599 12.2518 9.58091 12.511 9.39224 12.7036L0.791867 21.5305C0.603303 21.7243 0.49839 21.9843 0.499722 22.2547C0.501054 22.5251 0.608524 22.7842 0.798989 22.9761C0.892038 23.0706 1.00306 23.1455 1.12552 23.1964C1.24798 23.2474 1.3794 23.2733 1.51202 23.2726C1.64465 23.272 1.7758 23.2448 1.89775 23.1926C2.0197 23.1405 2.12998 23.0645 2.2221 22.9691L10.8225 14.1441C11.3876 13.5628 11.702 12.7829 11.698 11.9723C11.694 11.1616 11.372 10.3848 10.8011 9.80914L2.11422 1.06933C2.02114 0.974534 1.90999 0.899364 1.78736 0.848265C1.66473 0.797166 1.53309 0.771175 1.40024 0.771829C1.26739 0.772484 1.13602 0.79977 1.0139 0.852075C0.891771 0.90438 0.781373 0.980642 0.689233 1.07635C0.500669 1.27014 0.395755 1.53023 0.397087 1.80061C0.398419 2.07099 0.50589 2.33004 0.696355 2.52196Z" fill="white"/>
</svg>
