<svg width="30" height="34" viewBox="0 0 30 34" fill="none" xmlns="http://www.w3.org/2000/svg">
<path fill-rule="evenodd" clip-rule="evenodd" d="M30 15.1633V23.485C30 28.645 30 31.2267 28.7767 32.3533C28.1933 32.8917 27.4567 33.23 26.6717 33.32C25.0267 33.5083 23.105 31.8083 19.2633 28.41C17.5633 26.9083 16.715 26.1567 15.7333 25.96C15.2493 25.8624 14.7507 25.8624 14.2667 25.96C13.2833 26.1567 12.435 26.9083 10.7367 28.41C6.895 31.8083 4.97333 33.5083 3.32833 33.3183C2.54206 33.2281 1.80485 32.8902 1.22333 32.3533C-9.93411e-08 31.2267 0 28.6467 0 23.485V15.1617C0 8.01667 -1.98682e-07 4.44333 2.19667 2.22167C4.39333 0 7.93 0 15 0C22.0717 0 25.6067 0 27.8033 2.22C30 4.44167 30 8.01667 30 15.1633ZM8.75 6.66667C8.75 6.33515 8.8817 6.0172 9.11612 5.78278C9.35054 5.54836 9.66848 5.41667 10 5.41667H20C20.3315 5.41667 20.6495 5.54836 20.8839 5.78278C21.1183 6.0172 21.25 6.33515 21.25 6.66667C21.25 6.99819 21.1183 7.31613 20.8839 7.55055C20.6495 7.78497 20.3315 7.91667 20 7.91667H10C9.66848 7.91667 9.35054 7.78497 9.11612 7.55055C8.8817 7.31613 8.75 6.99819 8.75 6.66667Z" fill="#FFFF00"/>
</svg>
