<svg width="40" height="41" viewBox="0 0 40 41" fill="none" xmlns="http://www.w3.org/2000/svg">
<path d="M22.3828 16.9413C21.4805 16.9413 20.7812 17.6405 20.7812 18.5038C20.7812 19.3671 21.4805 20.0663 22.3828 20.0663C23.207 20.0663 23.9062 19.3671 23.9062 18.5038C23.9062 17.6405 23.207 16.9413 22.3828 16.9413ZM11.4453 16.9413C10.543 16.9413 9.84375 17.6405 9.84375 18.5038C9.84375 19.3671 10.543 20.0663 11.4453 20.0663C12.2695 20.0663 12.9688 19.3671 12.9688 18.5038C12.9688 17.6405 12.2695 16.9413 11.4453 16.9413Z" fill="#222222"/>
<path d="M34.9219 13.9726C33.043 11.3944 30.418 9.67179 27.5391 8.89445V8.89835C26.8711 8.15617 26.1172 7.47257 25.2734 6.8632C18.8789 2.21476 9.90234 3.63273 5.23437 10.0273C1.47265 15.2226 1.63281 22.2109 5.46875 27.1757L5.5 32.3554C5.5 32.4804 5.51953 32.6054 5.55859 32.7226C5.76562 33.3827 6.46875 33.746 7.125 33.539L12.0703 31.9804C13.3789 32.4452 14.7305 32.7109 16.0742 32.7851L16.0547 32.8007C19.5352 35.3359 24.0977 36.0976 28.2812 34.7148L33.2461 36.3319C33.3711 36.371 33.5 36.3944 33.6328 36.3944C34.3242 36.3944 34.8828 35.8359 34.8828 35.1444V29.9101C38.3242 25.2382 38.4141 18.7812 34.9219 13.9726ZM12.6172 29.2069L12.1484 29.0116L8.28125 30.2226L8.24218 26.1601L7.92968 25.8085C4.625 21.7773 4.40625 15.9687 7.5 11.7069C11.2656 6.54289 18.4844 5.40226 23.6328 9.12882C28.7969 12.8827 29.9414 20.0898 26.2109 25.2226C23.082 29.5155 17.4805 31.1015 12.6172 29.2069ZM32.3437 28.5429L32.0312 28.9335L32.0703 32.996L28.2422 31.7069L27.7734 31.9023C25.5859 32.7148 23.2539 32.7812 21.0937 32.1757L21.0859 32.1718C23.9727 31.2851 26.5898 29.4882 28.4766 26.9023C31.4609 22.789 31.9453 17.621 30.2109 13.2148L30.2344 13.2304C31.1328 13.8749 31.957 14.6796 32.6562 15.6523C35.4922 19.5429 35.332 24.8398 32.3437 28.5429Z" fill="#222222"/>
<path d="M16.9141 16.9413C16.0117 16.9413 15.3125 17.6405 15.3125 18.5038C15.3125 19.3671 16.0117 20.0663 16.9141 20.0663C17.7383 20.0663 18.4375 19.3671 18.4375 18.5038C18.4375 17.6405 17.7383 16.9413 16.9141 16.9413Z" fill="#222222"/>
</svg>
