<svg width="40" height="41" viewBox="0 0 40 41" fill="none" xmlns="http://www.w3.org/2000/svg">
<path d="M5 18.9926V27.3143C5 32.4743 5 35.056 6.22333 36.1826C6.80667 36.721 7.54333 37.0593 8.32833 37.1493C9.97333 37.3376 11.895 35.6376 15.7367 32.2393C17.4367 30.7376 18.285 29.986 19.2667 29.7893C19.75 29.6893 20.25 29.6893 20.7333 29.7893C21.7167 29.986 22.565 30.7376 24.2633 32.2393C28.105 35.6376 30.0267 37.3376 31.6717 37.1476C32.455 37.0593 33.1933 36.721 33.7767 36.1826C35 35.056 35 32.4759 35 27.3143V18.991C35 11.8443 35 8.27095 32.8033 6.04928C30.6067 3.82928 27.07 3.82928 20 3.82928C12.9283 3.82928 9.39333 3.82928 7.19667 6.04928C5.85167 7.40928 5.33 9.27928 5.12833 12.1626M25 10.496H15" stroke="#222222" stroke-width="2.5" stroke-linecap="round"/>
</svg>
