<svg width="50" height="50" viewBox="0 0 50 50" fill="none" xmlns="http://www.w3.org/2000/svg">
<path d="M35.4797 14.5203C35.2746 14.3151 35.0165 14.1711 34.7342 14.1043C34.4519 14.0375 34.1565 14.0506 33.8813 14.1422L19.8188 18.8297C19.5885 18.9065 19.3792 19.0358 19.2075 19.2075C19.0358 19.3792 18.9065 19.5885 18.8297 19.8188L14.1422 33.8813C14.0504 34.1566 14.0371 34.452 14.1037 34.7345C14.1704 35.0169 14.3144 35.2752 14.5196 35.4804C14.7248 35.6856 14.9831 35.8297 15.2656 35.8963C15.548 35.963 15.8435 35.9496 16.1188 35.8578L30.1813 31.1703C30.4116 31.0935 30.6209 30.9642 30.7925 30.7925C30.9642 30.6209 31.0935 30.4116 31.1703 30.1813L35.8578 16.1188C35.9494 15.8435 35.9625 15.5482 35.8957 15.2659C35.829 14.9835 35.6849 14.7254 35.4797 14.5203ZM18.0953 31.9063L21.5485 21.55L28.4531 28.4547L18.0953 31.9063Z" fill="#222222"/>
<path d="M25 46.875C20.6735 46.875 16.4442 45.5921 12.8469 43.1884C9.24959 40.7848 6.44581 37.3683 4.79014 33.3712C3.13448 29.3741 2.70128 24.9757 3.54533 20.7324C4.38938 16.4891 6.47277 12.5913 9.53205 9.53205C12.5913 6.47277 16.4891 4.38938 20.7324 3.54533C24.9757 2.70128 29.3741 3.13448 33.3712 4.79014C37.3683 6.44581 40.7848 9.24959 43.1884 12.8469C45.5921 16.4442 46.875 20.6735 46.875 25C46.8684 30.7996 44.5616 36.3597 40.4607 40.4607C36.3597 44.5616 30.7996 46.8684 25 46.875ZM25 6.25001C21.2916 6.25001 17.6665 7.34968 14.5831 9.40995C11.4996 11.4702 9.09641 14.3986 7.67727 17.8247C6.25813 21.2508 5.88681 25.0208 6.61029 28.658C7.33376 32.2951 9.11952 35.636 11.7418 38.2583C14.364 40.8805 17.7049 42.6663 21.3421 43.3897C24.9792 44.1132 28.7492 43.7419 32.1753 42.3228C35.6014 40.9036 38.5298 38.5004 40.5901 35.417C42.6503 32.3335 43.75 28.7084 43.75 25C43.7442 20.029 41.7669 15.2632 38.2519 11.7482C34.7368 8.2331 29.971 6.2558 25 6.25001Z" fill="#222222"/>
</svg>
