<svg width="32" height="26" viewBox="0 0 32 26" fill="none" xmlns="http://www.w3.org/2000/svg">
<path d="M0 2.85952C0 2.34992 0.197544 1.8612 0.549175 1.50086C0.900806 1.14052 1.37772 0.93808 1.875 0.93808H29.375C29.8723 0.93808 30.3492 1.14052 30.7008 1.50086C31.0525 1.8612 31.25 2.34992 31.25 2.85952C31.25 3.36912 31.0525 3.85784 30.7008 4.21818C30.3492 4.57852 29.8723 4.78096 29.375 4.78096H1.875C1.37772 4.78096 0.900806 4.57852 0.549175 4.21818C0.197544 3.85784 0 3.36912 0 2.85952ZM5 13.1072C5 12.5976 5.19754 12.1089 5.54917 11.7485C5.90081 11.3882 6.37772 11.1858 6.875 11.1858H24.375C24.8723 11.1858 25.3492 11.3882 25.7008 11.7485C26.0525 12.1089 26.25 12.5976 26.25 13.1072C26.25 13.6168 26.0525 14.1055 25.7008 14.4659C25.3492 14.8262 24.8723 15.0286 24.375 15.0286H6.875C6.37772 15.0286 5.90081 14.8262 5.54917 14.4659C5.19754 14.1055 5 13.6168 5 13.1072ZM10 23.3549C10 22.8453 10.1975 22.3566 10.5492 21.9962C10.9008 21.6359 11.3777 21.4334 11.875 21.4334H19.375C19.8723 21.4334 20.3492 21.6359 20.7008 21.9962C21.0525 22.3566 21.25 22.8453 21.25 23.3549C21.25 23.8645 21.0525 24.3532 20.7008 24.7135C20.3492 25.0739 19.8723 25.2763 19.375 25.2763H11.875C11.3777 25.2763 10.9008 25.0739 10.5492 24.7135C10.1975 24.3532 10 23.8645 10 23.3549Z" fill="#7D38DD"/>
</svg>
