<svg width="50" height="50" viewBox="0 0 50 50" fill="none" xmlns="http://www.w3.org/2000/svg">
<path d="M10.4167 25H6.25L25 6.25L43.75 25H39.5833M10.4167 25V39.5833C10.4167 40.6884 10.8557 41.7482 11.6371 42.5296C12.4185 43.311 13.4783 43.75 14.5833 43.75H35.4167C36.5217 43.75 37.5815 43.311 38.3629 42.5296C39.1443 41.7482 39.5833 40.6884 39.5833 39.5833V25" stroke="#222222" stroke-width="3.33333" stroke-linecap="round" stroke-linejoin="round"/>
<path d="M18.75 43.75V31.25C18.75 30.1449 19.189 29.0851 19.9704 28.3037C20.7518 27.5223 21.8116 27.0833 22.9167 27.0833H27.0833C28.1884 27.0833 29.2482 27.5223 30.0296 28.3037C30.811 29.0851 31.25 30.1449 31.25 31.25V43.75" stroke="#222222" stroke-width="3.33333" stroke-linecap="round" stroke-linejoin="round"/>
</svg>
