<svg width="35" height="31" viewBox="0 0 35 31" fill="none" xmlns="http://www.w3.org/2000/svg">
<path d="M4.16683 25.5C3.25016 25.5 2.46572 25.1739 1.8135 24.5217C1.16127 23.8694 0.834607 23.0844 0.833496 22.1667V3.83333C0.833496 2.91667 1.16016 2.13222 1.8135 1.48C2.46683 0.827778 3.25127 0.501111 4.16683 0.5H15.8335C16.3057 0.5 16.7018 0.66 17.0218 0.98C17.3418 1.3 17.5013 1.69556 17.5002 2.16667C17.5002 2.63889 17.3402 3.035 17.0202 3.355C16.7002 3.675 16.3046 3.83444 15.8335 3.83333H4.16683V22.1667H30.8335V18.8333C30.8335 18.3611 30.9935 17.9656 31.3135 17.6467C31.6335 17.3278 32.0291 17.1678 32.5002 17.1667C32.9724 17.1667 33.3685 17.3267 33.6885 17.6467C34.0085 17.9667 34.1679 18.3622 34.1668 18.8333V22.1667C34.1668 23.0833 33.8407 23.8683 33.1885 24.5217C32.5363 25.175 31.7513 25.5011 30.8335 25.5H25.8335L27.0002 26.6667C27.1668 26.8333 27.2918 27.0211 27.3752 27.23C27.4585 27.4389 27.5002 27.6539 27.5002 27.875V28.8333C27.5002 29.3056 27.3402 29.7011 27.0202 30.02C26.7002 30.3389 26.3046 30.4989 25.8335 30.5H9.16683C8.69461 30.5 8.29905 30.34 7.98016 30.02C7.66127 29.7 7.50127 29.3044 7.50016 28.8333V27.875C7.50016 27.6528 7.54183 27.4378 7.62516 27.23C7.7085 27.0222 7.8335 26.8344 8.00016 26.6667L9.16683 25.5H4.16683ZM20.8335 14.125V2.16667C20.8335 1.69444 20.9935 1.29889 21.3135 0.98C21.6335 0.661111 22.0291 0.501111 22.5002 0.5C22.9724 0.5 23.3685 0.66 23.6885 0.98C24.0085 1.3 24.1679 1.69556 24.1668 2.16667V14.125L27.3335 11C27.639 10.6944 28.0213 10.5344 28.4802 10.52C28.9391 10.5056 29.3346 10.6656 29.6668 11C29.9724 11.3056 30.1252 11.6944 30.1252 12.1667C30.1252 12.6389 29.9724 13.0278 29.6668 13.3333L22.5002 20.5L15.3335 13.3333C15.0279 13.0278 14.8685 12.6461 14.8552 12.1883C14.8418 11.7306 15.0013 11.3344 15.3335 11C15.6391 10.6944 16.0279 10.5417 16.5002 10.5417C16.9724 10.5417 17.3613 10.6944 17.6668 11L20.8335 14.125Z" fill="#F5FAFF"/>
</svg>
