<svg width="40" height="40" viewBox="0 0 40 40" fill="none" xmlns="http://www.w3.org/2000/svg">
<path d="M35 35L27.7617 27.7617M27.7617 27.7617C28.9998 26.5235 29.982 25.0536 30.6521 23.4359C31.3221 21.8182 31.667 20.0843 31.667 18.3333C31.667 16.5823 31.3221 14.8485 30.6521 13.2308C29.982 11.613 28.9998 10.1431 27.7617 8.905C26.5235 7.66685 25.0536 6.6847 23.4359 6.01462C21.8182 5.34454 20.0843 4.99966 18.3333 4.99966C16.5823 4.99966 14.8485 5.34454 13.2308 6.01462C11.613 6.6847 10.1432 7.66685 8.90501 8.905C6.40446 11.4055 4.99966 14.797 4.99966 18.3333C4.99966 21.8696 6.40446 25.2611 8.90501 27.7617C11.4056 30.2622 14.797 31.667 18.3333 31.667C21.8697 31.667 25.2611 30.2622 27.7617 27.7617Z" stroke="#777777" stroke-width="3.33333" stroke-linecap="round" stroke-linejoin="round"/>
</svg>
