<svg width="24" height="12" viewBox="0 0 24 12" fill="none" xmlns="http://www.w3.org/2000/svg">
<path d="M21.5043 0.669368L12.72 9.31499C12.5283 9.50461 12.2696 9.61096 12 9.61096C11.7304 9.61096 11.4716 9.50461 11.28 9.31499L2.49559 0.671243C2.30273 0.481726 2.04316 0.375533 1.77278 0.375533C1.50239 0.375533 1.24282 0.481726 1.04996 0.671243C0.954996 0.763825 0.879524 0.874479 0.827991 0.996686C0.776461 1.11889 0.74991 1.25018 0.74991 1.38281C0.74991 1.51543 0.776461 1.64672 0.827991 1.76892C0.879524 1.89113 0.954996 2.00179 1.04996 2.09437L9.83246 10.7381C10.4109 11.3061 11.1893 11.6243 12 11.6243C12.8107 11.6243 13.589 11.3061 14.1675 10.7381L22.95 2.09437C23.0452 2.00176 23.1209 1.89099 23.1726 1.76861C23.2243 1.64623 23.251 1.51472 23.251 1.38187C23.251 1.24901 23.2243 1.11751 23.1726 0.995131C23.1209 0.87275 23.0452 0.761978 22.95 0.669368C22.7571 0.479851 22.4975 0.373657 22.2271 0.373657C21.9568 0.373657 21.6972 0.479851 21.5043 0.669368Z" fill="white"/>
</svg>
