<svg width="50" height="50" viewBox="0 0 50 50" fill="none" xmlns="http://www.w3.org/2000/svg">
<path d="M29.3312 3.125C29.662 3.12501 29.9843 3.23001 30.2516 3.42488C30.5189 3.61975 30.7175 3.89444 30.8187 4.20938L32.5375 9.55C33.2593 9.90312 33.95 10.3 34.6094 10.7469L40.0969 9.56563C40.4204 9.49655 40.7575 9.53195 41.0597 9.66673C41.3618 9.80151 41.6134 10.0287 41.7781 10.3156L46.1094 17.8125C46.2747 18.0992 46.3448 18.4311 46.3094 18.7602C46.274 19.0893 46.135 19.3987 45.9125 19.6437L42.1469 23.8C42.2017 24.597 42.2017 25.3968 42.1469 26.1938L45.9125 30.3562C46.135 30.6013 46.274 30.9107 46.3094 31.2398C46.3448 31.5689 46.2747 31.9008 46.1094 32.1875L41.7781 39.6875C41.6129 39.9738 41.3611 40.2004 41.059 40.3346C40.7569 40.4688 40.4201 40.5037 40.0969 40.4344L34.6094 39.2531C33.9531 39.6969 33.2594 40.0969 32.5406 40.45L30.8187 45.7906C30.7175 46.1056 30.5189 46.3802 30.2516 46.5751C29.9843 46.77 29.662 46.875 29.3312 46.875H20.6687C20.3379 46.875 20.0156 46.77 19.7483 46.5751C19.481 46.3802 19.2824 46.1056 19.1812 45.7906L17.4656 40.4531C16.7457 40.101 16.0513 39.699 15.3875 39.25L9.9031 40.4344C9.57955 40.5035 9.24243 40.4681 8.94029 40.3333C8.63815 40.1985 8.38659 39.9713 8.22185 39.6844L3.8906 32.1875C3.72521 31.9008 3.65515 31.5689 3.69053 31.2398C3.72592 30.9107 3.86491 30.6013 4.08747 30.3562L7.8531 26.1938C7.79853 25.3989 7.79853 24.6011 7.8531 23.8062L4.08747 19.6437C3.86491 19.3987 3.72592 19.0893 3.69053 18.7602C3.65515 18.4311 3.72521 18.0992 3.8906 17.8125L8.22185 10.3125C8.38705 10.0262 8.6388 9.79961 8.9409 9.6654C9.243 9.5312 9.57989 9.49626 9.9031 9.56563L15.3875 10.75C16.05 10.3031 16.7437 9.9 17.4656 9.54688L19.1843 4.20938C19.2852 3.89545 19.4829 3.6215 19.7489 3.42672C20.015 3.23194 20.3359 3.12633 20.6656 3.125H29.3281H29.3312ZM28.1875 6.25H21.8125L20.0375 11.7719L18.8406 12.3562C18.2522 12.6442 17.6842 12.972 17.1406 13.3375L16.0343 14.0875L10.3593 12.8625L7.17185 18.3875L11.0625 22.6938L10.9687 24.0187C10.9238 24.6721 10.9238 25.3279 10.9687 25.9813L11.0625 27.3062L7.1656 31.6125L10.3562 37.1375L16.0312 35.9156L17.1375 36.6625C17.6811 37.028 18.2491 37.3558 18.8375 37.6437L20.0343 38.2281L21.8125 43.75H28.1937L29.975 38.225L31.1687 37.6437C31.7565 37.3565 32.3235 37.0287 32.8656 36.6625L33.9687 35.9156L39.6469 37.1375L42.8344 31.6125L38.9406 27.3062L39.0344 25.9813C39.0794 25.3268 39.0794 24.6701 39.0344 24.0156L38.9406 22.6906L42.8375 18.3875L39.6469 12.8625L33.9687 14.0813L32.8656 13.3375C32.3235 12.9713 31.7565 12.6435 31.1687 12.3562L29.975 11.775L28.1906 6.25H28.1875ZM25 15.625C27.4864 15.625 29.8709 16.6127 31.6291 18.3709C33.3873 20.129 34.375 22.5136 34.375 25C34.375 27.4864 33.3873 29.871 31.6291 31.6291C29.8709 33.3873 27.4864 34.375 25 34.375C22.5136 34.375 20.129 33.3873 18.3708 31.6291C16.6127 29.871 15.625 27.4864 15.625 25C15.625 22.5136 16.6127 20.129 18.3708 18.3709C20.129 16.6127 22.5136 15.625 25 15.625ZM25 18.75C23.3424 18.75 21.7527 19.4085 20.5806 20.5806C19.4085 21.7527 18.75 23.3424 18.75 25C18.75 26.6576 19.4085 28.2473 20.5806 29.4194C21.7527 30.5915 23.3424 31.25 25 31.25C26.6576 31.25 28.2473 30.5915 29.4194 29.4194C30.5915 28.2473 31.25 26.6576 31.25 25C31.25 23.3424 30.5915 21.7527 29.4194 20.5806C28.2473 19.4085 26.6576 18.75 25 18.75Z" fill="#222222"/>
</svg>
