<svg width="32" height="34" viewBox="0 0 32 34" fill="none" xmlns="http://www.w3.org/2000/svg">
<path d="M18.5337 25.0387L11.5353 21.222C10.6217 22.1988 9.43532 22.8781 8.13046 23.1718C6.82561 23.4655 5.46259 23.3599 4.21854 22.8687C2.9745 22.3776 1.90694 21.5236 1.15462 20.4178C0.402302 19.3119 0 18.0053 0 16.6678C0 15.3303 0.402302 14.0238 1.15462 12.9179C1.90694 11.8121 2.9745 10.9581 4.21854 10.4669C5.46259 9.97579 6.82561 9.87019 8.13046 10.1639C9.43532 10.4575 10.6217 11.1369 11.5353 12.1137L18.5353 8.29701C18.1385 6.72362 18.3292 5.05951 19.0715 3.61662C19.8139 2.17374 21.0571 1.05115 22.5679 0.45929C24.0788 -0.132572 25.7537 -0.153071 27.2786 0.401636C28.8035 0.956342 30.0737 2.04817 30.8512 3.47245C31.6287 4.89673 31.86 6.55567 31.5018 8.13831C31.1436 9.72094 30.2205 11.1186 28.9055 12.0693C27.5905 13.02 25.9739 13.4584 24.3587 13.3025C22.7436 13.1465 21.2408 12.4068 20.132 11.222L13.132 15.0387C13.4007 16.1076 13.4007 17.2264 13.132 18.2953L20.132 22.112C21.2413 20.9278 22.7445 20.1889 24.3597 20.0337C25.9749 19.8785 27.5912 20.3177 28.9057 21.269C30.2203 22.2203 31.1427 23.6183 31.5002 25.2011C31.8577 26.7839 31.6256 28.4427 30.8475 29.8666C30.0694 31.2905 28.7988 32.3817 27.2736 32.9358C25.7485 33.4898 24.0737 33.4686 22.5631 32.8762C21.0525 32.2837 19.8099 31.1606 19.0681 29.7175C18.3263 28.2744 18.1363 26.6102 18.5337 25.037M6.66701 20.0003C7.55106 20.0003 8.39891 19.6492 9.02403 19.024C9.64915 18.3989 10.0003 17.5511 10.0003 16.667C10.0003 15.783 9.64915 14.9351 9.02403 14.31C8.39891 13.6849 7.55106 13.3337 6.66701 13.3337C5.78295 13.3337 4.93511 13.6849 4.30999 14.31C3.68487 14.9351 3.33368 15.783 3.33368 16.667C3.33368 17.5511 3.68487 18.3989 4.30999 19.024C4.93511 19.6492 5.78295 20.0003 6.66701 20.0003ZM25.0003 10.0003C25.8844 10.0003 26.7322 9.64915 27.3574 9.02403C27.9825 8.39891 28.3337 7.55106 28.3337 6.66701C28.3337 5.78295 27.9825 4.93511 27.3574 4.30999C26.7322 3.68487 25.8844 3.33368 25.0003 3.33368C24.1163 3.33368 23.2684 3.68487 22.6433 4.30999C22.0182 4.93511 21.667 5.78295 21.667 6.66701C21.667 7.55106 22.0182 8.39891 22.6433 9.02403C23.2684 9.64915 24.1163 10.0003 25.0003 10.0003ZM25.0003 30.0003C25.8844 30.0003 26.7322 29.6492 27.3574 29.024C27.9825 28.3989 28.3337 27.5511 28.3337 26.667C28.3337 25.783 27.9825 24.9351 27.3574 24.31C26.7322 23.6849 25.8844 23.3337 25.0003 23.3337C24.1163 23.3337 23.2684 23.6849 22.6433 24.31C22.0182 24.9351 21.667 25.783 21.667 26.667C21.667 27.5511 22.0182 28.3989 22.6433 29.024C23.2684 29.6492 24.1163 30.0003 25.0003 30.0003Z" fill="#222222"/>
</svg>
