<svg width="100" height="70" viewBox="0 0 100 70" fill="none" xmlns="http://www.w3.org/2000/svg">
<path d="M50 0.5C37.125 0.5 27 10.2812 25.5844 22.7656C22.8614 23.2044 20.3077 24.3712 18.1936 26.1426C16.0795 27.914 14.4837 30.224 13.575 32.8281C5.8875 35.0438 0 41.9 0 50.5C0 60.8875 8.3625 69.25 18.75 69.25H81.25C91.6375 69.25 100 60.8875 100 50.5C100 45 97.3281 40.075 93.4563 36.6313C92.7312 25.65 83.9719 16.8875 72.95 16.3188C69.1875 7.16563 60.5563 0.5 50 0.5ZM50 6.75C58.6312 6.75 65.5312 12.2812 67.9688 20.125L68.6562 22.375H71.875C80.4844 22.375 87.5 29.3906 87.5 38V39.5625L88.7688 40.5406C90.3 41.7142 91.5443 43.2207 92.4073 44.9462C93.2703 46.6717 93.7294 48.5709 93.75 50.5C93.75 57.6125 88.3625 63 81.25 63H18.75C11.6375 63 6.25 57.6125 6.25 50.5C6.25 44.1875 10.7813 39.2875 16.5 38.2938L18.5531 37.9031L18.9437 35.8469C19.8812 31.6375 23.6125 28.625 28.125 28.625H31.25V25.5C31.25 14.9688 39.4688 6.75 50 6.75ZM50 24.2312L47.75 26.3781L35.25 38.8781L39.75 43.3781L46.875 36.2406V56.75H53.125V36.2406L60.25 43.3719L64.75 38.8719L52.25 26.3719L50 24.2312Z" fill="#7D38DD"/>
</svg>
