<svg width="41" height="41" viewBox="0 0 41 41" fill="none" xmlns="http://www.w3.org/2000/svg">
<g clip-path="url(#clip0_26_117)">
<path fill-rule="evenodd" clip-rule="evenodd" d="M8 11.75H21.75C22.7446 11.75 23.6984 12.1451 24.4017 12.8483C25.1049 13.5516 25.5 14.5054 25.5 15.5V25.5C25.5 26.4946 25.1049 27.4484 24.4017 28.1517C23.6984 28.8549 22.7446 29.25 21.75 29.25H8C7.00544 29.25 6.05161 28.8549 5.34835 28.1517C4.64509 27.4484 4.25 26.4946 4.25 25.5V15.5C4.25 14.5054 4.64509 13.5516 5.34835 12.8483C6.05161 12.1451 7.00544 11.75 8 11.75ZM29.13 26.8425C28.8156 28.5706 27.9046 30.1335 26.556 31.2588C25.2073 32.384 23.5065 33.0003 21.75 33H8C6.01088 33 4.10322 32.2098 2.6967 30.8033C1.29018 29.3968 0.5 27.4891 0.5 25.5L0.5 15.5C0.5 13.5109 1.29018 11.6032 2.6967 10.1967C4.10322 8.79018 6.01088 8 8 8H21.75C23.5065 7.99973 25.2073 8.61595 26.556 9.74122C27.9046 10.8665 28.8156 12.4294 29.13 14.1575L33.015 11.3825C33.7225 10.8766 34.5557 10.5755 35.4232 10.5123C36.2906 10.449 37.1587 10.626 37.9322 11.0238C38.7056 11.4216 39.3544 12.0249 39.8074 12.7673C40.2604 13.5098 40.5001 14.3628 40.5 15.2325V25.7675C40.5001 26.6372 40.2604 27.4902 39.8074 28.2327C39.3544 28.9751 38.7056 29.5784 37.9322 29.9762C37.1587 30.374 36.2906 30.551 35.4232 30.4877C34.5557 30.4245 33.7225 30.1234 33.015 29.6175L29.13 26.8425ZM29.25 22.32L35.195 26.5675C35.3419 26.6729 35.5151 26.7356 35.6954 26.7489C35.8757 26.7622 36.0562 26.7254 36.217 26.6427C36.3777 26.56 36.5126 26.4345 36.6066 26.2801C36.7007 26.1257 36.7503 25.9483 36.75 25.7675V15.2325C36.7503 15.0517 36.7007 14.8743 36.6066 14.7199C36.5126 14.5655 36.3777 14.44 36.217 14.3573C36.0562 14.2746 35.8757 14.2378 35.6954 14.2511C35.5151 14.2644 35.3419 14.3271 35.195 14.4325L29.25 18.68V22.32Z" fill="#F5FAFF"/>
</g>
<defs>
<clipPath id="clip0_26_117">
<rect width="40" height="40" fill="white" transform="translate(0.5 0.5)"/>
</clipPath>
</defs>
</svg>
