<svg width="38" height="28" viewBox="0 0 38 28" fill="none" xmlns="http://www.w3.org/2000/svg">
<path d="M37.4255 13.325C35.9553 9.52206 33.4029 6.23327 30.0838 3.86511C26.7647 1.49694 22.8245 0.153216 18.75 0C14.6755 0.153216 10.7353 1.49694 7.41618 3.86511C4.0971 6.23327 1.54471 9.52206 0.0744703 13.325C-0.0248234 13.5996 -0.0248234 13.9004 0.0744703 14.175C1.54471 17.9779 4.0971 21.2667 7.41618 23.6349C10.7353 26.0031 14.6755 27.3468 18.75 27.5C22.8245 27.3468 26.7647 26.0031 30.0838 23.6349C33.4029 21.2667 35.9553 17.9779 37.4255 14.175C37.5248 13.9004 37.5248 13.5996 37.4255 13.325ZM18.75 21.875C17.143 21.875 15.5721 21.3985 14.2359 20.5057C12.8997 19.6129 11.8582 18.344 11.2433 16.8593C10.6283 15.3747 10.4674 13.741 10.7809 12.1649C11.0944 10.5888 11.8683 9.14106 13.0046 8.00476C14.1409 6.86846 15.5887 6.09463 17.1648 5.78112C18.741 5.46762 20.3747 5.62852 21.8594 6.24348C23.3441 6.85844 24.6131 7.89984 25.5059 9.23599C26.3987 10.5721 26.8752 12.143 26.8752 13.75C26.8719 15.9039 26.0148 17.9686 24.4918 19.4916C22.9687 21.0146 20.9039 21.8717 18.75 21.875Z" fill="white"/>
</svg>
